<?xml version="1.0" ?>
<svg viewBox="0 0 64 64" xmlns="http://www.w3.org/2000/svg">
  <defs>
  <style>
    .cls-1,.cls-2,.cls-3{
      fill:none;
    }
    .cls-1{
      stroke:#fff;
      stroke-linecap:round;
      stroke-linejoin:round;
      stroke-width:2px;
    }
    .cls-3{
      stroke:#fff;
      stroke-linecap:round;
      stroke-linejoin:round;
      stroke-width:1px;
    }
  </style>
  </defs>
  <title/>
  <g data-name="katman 2" id="katman_2">
    <g id="icons">
      <!-- pointe -->
      <path class="cls-3" d="M35,54.46V57a2,2,0,0,1-2,2H31a2,2,0,0,1-2-2V54.46A4,4,0,0,0,31,55h2A4,4,0,0,0,35,54.46Z"/>
      <!-- culot -->
      <path class="cls-1" d="M37,47v4a4,4,0,0,1-4,4H31a4,4,0,0,1-4-4V47"/>
      <!-- Ampoule -->
      <path class="cls-1" d="M47,25.82a15,15,0,0,1-5.63,11.89A11.24,11.24,0,0,0,37,46.44V47H27v-.56a10.65,10.65,0,0,0-4.08-8.5A15,15,0,1,1,47,25.82Z"/>
      <!-- Filaments -->
      <line class="cls-3" x1="30" x2="30" y1="47" y2="35"/>
      <line class="cls-3" x1="34" x2="34" y1="47" y2="35"/>
      <line class="cls-3" x1="30" x2="24" y1="35" y2="29"/>
      <line class="cls-3" x1="34" x2="40" y1="35" y2="29"/>
      <!-- Reflets -->
      <!-- <path class="cls-1" d="M26,15.61A11.94,11.94,0,0,1,32,14"/> -->
      <!-- <path class="cls-1" d="M20,26a12,12,0,0,1,2.57-7.42"/> -->
      <!-- Rayons -->
      <!-- <line class="cls-1" x1="32" x2="32" y1="6" y2="2"/> -->
      <!-- <line class="cls-1" x1="17.27" x2="14.44" y1="11.27" y2="8.44"/> -->
      <!-- <line class="cls-1" x1="12" x2="8" y1="26" y2="26"/> -->
      <!-- <line class="cls-1" x1="52" x2="56" y1="26" y2="26"/> -->
      <!-- <line class="cls-1" x1="46.73" x2="49.56" y1="11.27" y2="8.44"/> -->
      <!-- Lignes culot -->
      <!-- <line class="cls-3" x1="27" x2="37" y1="50" y2="50"/> -->
      <!-- <rect class="cls-2" height="64" width="64"/> -->
    </g>
  </g>
</svg>
